<svg xmlns="http://www.w3.org/2000/svg" viewBox="0 0 800 640" fill="none" role="img" aria-labelledby="title-bg">
  <title id="title-bg">Data lifecycle: collect, label, evaluate, operate</title>
  <defs>
    <linearGradient id="bg-em" x1="0%" y1="0%" x2="100%" y2="100%">
      <stop offset="0%" stop-color="#059669" stop-opacity="0.35"/>
      <stop offset="55%" stop-color="#14b8a6" stop-opacity="0.2"/>
      <stop offset="100%" stop-color="#0d9488" stop-opacity="0.08"/>
    </linearGradient>
    <linearGradient id="bg-line" x1="0%" y1="0%" x2="100%" y2="0%">
      <stop offset="0%" stop-color="#10b981" stop-opacity="0.5"/>
      <stop offset="100%" stop-color="#0d9488" stop-opacity="0.15"/>
    </linearGradient>
    <filter id="glow" x="-50%" y="-50%" width="200%" height="200%">
      <feGaussianBlur stdDeviation="18" result="b"/>
      <feMerge><feMergeNode in="b"/><feMergeNode in="SourceGraphic"/></feMerge>
    </filter>
  </defs>
  <rect width="800" height="640" rx="32" fill="url(#bg-em)"/>
  <ellipse cx="400" cy="420" rx="280" ry="72" stroke="#71717a" stroke-opacity="0.35" stroke-width="1.5" fill="none"/>
  <ellipse cx="400" cy="360" rx="240" ry="60" stroke="#71717a" stroke-opacity="0.3" stroke-width="1.5" fill="none"/>
  <ellipse cx="400" cy="300" rx="200" ry="56" stroke="url(#bg-line)" stroke-width="2" fill="none" opacity="0.9"/>
  <circle cx="400" cy="220" r="44" fill="#0f766e" fill-opacity="0.25" stroke="#10b981" stroke-width="2" filter="url(#glow)"/>
  <circle cx="260" cy="320" r="28" fill="#059669" fill-opacity="0.35" stroke="#34d399" stroke-width="1.5"/>
  <circle cx="540" cy="320" r="28" fill="#059669" fill-opacity="0.35" stroke="#34d399" stroke-width="1.5"/>
  <circle cx="400" cy="400" r="22" fill="#047857" fill-opacity="0.4" stroke="#6ee7b7" stroke-width="1.5"/>
  <path d="M400 264 Q280 300 288 320" stroke="url(#bg-line)" stroke-width="2" fill="none" stroke-linecap="round"/>
  <path d="M400 264 Q520 300 512 320" stroke="url(#bg-line)" stroke-width="2" fill="none" stroke-linecap="round"/>
  <path d="M288 348 Q340 380 378 380" stroke="url(#bg-line)" stroke-width="1.5" fill="none" stroke-linecap="round" opacity="0.8"/>
  <path d="M512 348 Q460 380 422 380" stroke="url(#bg-line)" stroke-width="1.5" fill="none" stroke-linecap="round" opacity="0.8"/>
  <circle cx="180" cy="160" r="4" fill="#10b981" opacity="0.6"/>
  <circle cx="620" cy="180" r="4" fill="#10b981" opacity="0.5"/>
  <circle cx="700" cy="480" r="4" fill="#14b8a6" opacity="0.45"/>
  <circle cx="100" cy="440" r="4" fill="#14b8a6" opacity="0.45"/>
  <text x="400" y="548" text-anchor="middle" fill="#64748b" font-family="system-ui, -apple-system, sans-serif" font-size="13" font-weight="600" letter-spacing="0.12em">COLLECT</text>
  <text x="220" y="548" text-anchor="middle" fill="#64748b" font-family="system-ui, -apple-system, sans-serif" font-size="13" font-weight="600" letter-spacing="0.12em">LABEL</text>
  <text x="580" y="548" text-anchor="middle" fill="#64748b" font-family="system-ui, -apple-system, sans-serif" font-size="13" font-weight="600" letter-spacing="0.12em">EVALUATE</text>
  <text x="400" y="578" text-anchor="middle" fill="#94a3b8" font-family="system-ui, -apple-system, sans-serif" font-size="11" font-weight="500" letter-spacing="0.14em">OPERATE &amp; MAINTAIN</text>
</svg>
